<?xml version="1.0" encoding="UTF-8" standalone="no"?>
<!-- Created with Inkscape (http://www.inkscape.org/) -->

<svg
   width="500"
   height="500"
   viewBox="0 0 132.29166 132.29167"
   version="1.1"
   id="svg1"
   xml:space="preserve"
   xmlns:inkscape="http://www.inkscape.org/namespaces/inkscape"
   xmlns:sodipodi="http://sodipodi.sourceforge.net/DTD/sodipodi-0.dtd"
   xmlns="http://www.w3.org/2000/svg"
   xmlns:svg="http://www.w3.org/2000/svg"><sodipodi:namedview
     id="namedview1"
     pagecolor="#ffffff"
     bordercolor="#000000"
     borderopacity="0.25"
     inkscape:showpageshadow="2"
     inkscape:pageopacity="0.0"
     inkscape:pagecheckerboard="0"
     inkscape:deskcolor="#d1d1d1"
     inkscape:document-units="px" /><defs
     id="defs1" /><g
     inkscape:label="Layer 1"
     inkscape:groupmode="layer"
     id="layer1"><path
       style="fill:#2b81fc;fill-opacity:1"
       d="m 48.272229,97.912509 c -0.0125,-0.0111 -0.19714,-0.0517 -0.4103,-0.0903 -1.06599,-0.193 -2.53419,-1.001395 -3.33326,-1.835293 -0.61674,-0.643631 -1.53675,-2.372068 -1.78288,-3.349537 -0.34419,-1.366874 0.13479,-3.683606 1.05949,-5.124626 0.50959,-0.794126 1.66887,-1.866068 2.64342,-2.444261 l 0.76457,-0.453616 -0.0369,-8.774657 c -0.0203,-4.826061 -0.0645,-8.802212 -0.0982,-8.83589 -0.12816,-0.128167 -0.71909,-0.154447 -3.35034,-0.148998 -3.72761,0.0077 -3.54743,-0.03747 -4.20769,1.055293 -0.29891,0.494717 -0.65335,0.958286 -0.78763,1.030153 -0.13429,0.07187 -0.20448,0.194868 -0.15598,0.273337 0.0489,0.07908 0.0297,0.10655 -0.043,0.06163 -0.0721,-0.04458 -0.32818,0.11294 -0.56902,0.350032 -0.62223,0.612543 -2.29834,1.152049 -3.66767,1.180543 -1.63616,0.03405 -3.15064,-0.600513 -4.37412,-1.832733 -1.13176,-1.139844 -1.88067,-2.852443 -1.88849,-4.31856 -0.003,-0.642437 0.35726,-1.906186 0.80806,-2.831243 0.35094,-0.720141 1.63004,-2.022631 2.45584,-2.500758 1.6872,-0.976851 4.46295,-0.969231 6.01607,0.01651 0.78506,0.498266 1.75948,1.436032 2.24575,2.161266 0.28586,0.426331 0.61044,0.847817 0.7213,0.936636 0.14928,0.119605 1.04758,0.161489 3.46361,0.161489 2.46777,0 3.2875,-0.03932 3.36657,-0.161489 0.0575,-0.08882 0.10069,-3.456381 0.096,-7.483472 -0.006,-5.581956 -0.0461,-7.36735 -0.16694,-7.512886 -0.0871,-0.104997 -0.46631,-0.341531 -0.84259,-0.525632 -1.29579,-0.63397 -2.63138,-2.204835 -3.19665,-3.75978 -0.34121,-0.938584 -0.41673,-3.19842 -0.13168,-3.940328 0.0956,-0.248693 0.21558,-0.568441 0.26673,-0.710551 0.41449,-1.151484 1.00824,-2.071095 1.71928,-2.662826 1.45243,-1.208725 2.56795,-1.580256 4.54914,-1.515113 1.28092,0.04212 1.37535,0.06571 2.42551,0.605988 0.98323,0.505841 2.06003,1.374995 2.71266,2.189562 0.19199,0.239616 0.7694,1.262185 0.81707,1.446985 0.0737,0.285718 0.32278,0.747488 0.46837,0.868313 0.12241,0.101592 1.79632,0.172459 5.40719,0.228918 3.19214,0.04991 5.86986,0.155174 6.87237,0.270154 3.70697,0.425158 8.46961,2.012291 11.34122,3.779419 0.44931,0.276498 1.09798,0.361958 1.36891,0.18035 0.27719,-0.185803 0.31414,-0.826659 0.10671,-1.850386 -0.19381,-0.956481 -0.19401,-1.121906 -0.002,-2.096112 0.23521,-1.196615 0.9298,-2.696857 1.53537,-3.316253 0.84735,-0.866689 2.39855,-1.421312 3.96784,-1.41868 2.45762,0.0041 4.09834,0.990458 5.35971,3.222052 0.22855,0.40434 0.44809,0.875648 0.48786,1.047352 0.0398,0.171703 0.10186,0.436026 0.13797,0.587383 0.1137,0.476684 0.1372,1.540622 0.0376,1.701813 -0.0526,0.08505 -0.0596,0.212781 -0.0157,0.283836 0.0439,0.07106 0.0201,0.129191 -0.0529,0.129191 -0.073,0 -0.0993,0.0872 -0.0584,0.193787 0.0409,0.106582 0.01,0.193786 -0.0686,0.193786 -0.0787,0 -0.13613,0.0436 -0.12772,0.09689 0.008,0.05329 0.001,0.140495 -0.0161,0.193786 -0.0173,0.05329 -0.0429,0.140496 -0.0568,0.193787 -0.0139,0.05329 -0.0892,0.242233 -0.16713,0.419871 -0.078,0.177638 -0.17514,0.4284 -0.21595,0.55725 -0.0433,0.136791 -0.13663,0.195682 -0.22426,0.141528 -0.0826,-0.05107 -0.11552,-0.03686 -0.0732,0.03163 0.0423,0.06841 -0.0505,0.275947 -0.20612,0.4612 -0.35364,0.420915 -1.93393,1.493104 -2.35727,1.599355 -0.17366,0.04359 -0.31576,0.12563 -0.31576,0.182314 0,0.245308 -2.48833,0.382771 -2.91622,0.161101 -0.13693,-0.07093 -0.46383,-0.167739 -0.72645,-0.215119 -0.40571,-0.0732 -0.49989,-0.04428 -0.62654,0.192372 -0.11808,0.220632 -0.11497,0.257448 0.015,0.177139 0.11622,-0.07183 0.13999,-0.03873 0.0815,0.1136 -0.0454,0.118239 -0.0228,0.21498 0.0503,0.21498 0.073,0 0.10045,0.05228 0.061,0.116176 -0.0395,0.0639 0.11695,0.282421 0.34765,0.48561 0.23069,0.203188 0.88115,0.892143 1.44545,1.53101 0.5643,0.638867 1.05862,1.190645 1.09849,1.226172 0.11571,0.103107 1.04069,1.539138 1.04069,1.615671 0,0.08169 0.67281,1.132403 0.78539,1.226533 0.21014,0.175687 1.47304,3.078047 1.68645,3.875733 0.0855,0.319748 0.20387,0.636589 0.26295,0.704091 0.0591,0.0675 0.10741,0.256445 0.10741,0.419871 0,0.163427 0.0515,0.29714 0.11453,0.29714 0.063,0 0.1423,0.159874 0.17623,0.355275 0.0339,0.195402 0.15628,0.791881 0.27187,1.325509 0.44939,2.074617 0.60215,3.681268 0.60534,6.366871 0.002,1.477425 -0.0302,2.740343 -0.0711,2.806487 -0.0409,0.06614 -0.0945,0.436665 -0.11908,0.823381 -0.0246,0.386716 -0.0852,0.768618 -0.13471,0.84867 -0.0495,0.08005 -0.10663,0.369147 -0.12701,0.642433 -0.0204,0.273285 -0.0738,0.556293 -0.11866,0.628906 -0.0449,0.07261 -0.0919,0.297091 -0.10453,0.49884 -0.0126,0.201749 -0.0625,0.424952 -0.11089,0.496007 -0.10865,0.159604 -0.30282,0.869251 -0.27395,1.001231 0.0117,0.05329 -0.0351,0.09689 -0.10395,0.09689 -0.0688,0 -0.0953,0.07789 -0.0587,0.173089 0.0365,0.0952 -0.0228,0.247126 -0.13182,0.337616 -0.10904,0.09049 -0.1674,0.214434 -0.1297,0.275431 0.0377,0.061 -0.0233,0.251122 -0.13563,0.4225 -0.11229,0.171379 -0.18956,0.361963 -0.17171,0.423521 0.0179,0.06156 -0.0401,0.242729 -0.12872,0.402603 -0.0887,0.159874 -0.13122,0.29068 -0.0946,0.29068 0.0922,0 -0.58575,1.209191 -0.7316,1.304844 -0.065,0.04264 -0.13298,0.178095 -0.15102,0.301011 -0.018,0.122915 -0.10634,0.268935 -0.19623,0.324489 -0.0899,0.05555 -0.15846,0.138108 -0.1524,0.183455 0.0428,0.319935 -0.0155,0.470023 -0.18275,0.470023 -0.10658,0 -0.18364,0.0436 -0.17124,0.09689 0.0338,0.145156 -0.30814,0.807444 -0.41685,0.807444 -0.052,0 -0.12926,0.130806 -0.17181,0.29068 -0.0426,0.159874 -0.35948,0.59217 -0.70428,0.960657 -0.75357,0.805339 -1.11193,1.318648 -1.13318,1.623165 -0.018,0.257482 -0.0422,0.253556 1.69422,0.274834 1.19416,0.01463 1.3622,0.0497 2.19624,0.45831 0.58471,0.286454 1.1771,0.719199 1.6801,1.227315 0.94501,0.954633 1.24934,1.538833 1.72119,3.304078 0.0894,0.334516 -0.007,1.630763 -0.16315,2.196248 -0.0491,0.177638 -0.10497,0.381114 -0.12419,0.452169 -0.0706,0.261015 -0.53448,0.967324 -0.63583,0.968116 -0.0575,4.5e-4 -0.0686,0.05895 -0.0247,0.130008 0.0439,0.07106 0.0183,0.129191 -0.057,0.129191 -0.0753,0 -0.13682,0.06041 -0.13682,0.134234 0,0.175354 -0.84566,1.017005 -1.4211,1.414356 -0.24869,0.171728 -0.48124,0.345285 -0.51676,0.385682 -0.12386,0.140834 -0.78917,0.391168 -1.03961,0.391168 -0.13877,0 -0.25231,0.05814 -0.25231,0.129191 0,0.07106 -0.0436,0.117653 -0.0969,0.103552 -0.0533,-0.0141 -0.3585,0.01498 -0.67825,0.06462 -0.66412,0.103105 -2.12858,-0.211371 -3.14552,-0.675465 -1.24207,-0.566841 -2.30517,-1.905718 -2.85638,-3.597375 -0.21925,-0.672882 -0.21884,-1.130151 0.002,-2.773844 0.0646,-0.479755 0.0404,-0.6289 -0.11142,-0.687166 -0.21892,-0.084 -1.41753,0.76939 -1.27742,0.909502 0.0489,0.04893 0.0308,0.07398 -0.0402,0.05566 -0.17255,-0.04449 -0.83974,0.284471 -0.83974,0.414044 0,0.05633 -0.26161,0.218132 -0.58136,0.359572 -0.31975,0.14144 -0.58136,0.328258 -0.58136,0.415151 0,0.08689 -0.034,0.123997 -0.0755,0.08245 -0.0637,-0.0637 -1.2668,0.501618 -1.87451,0.880815 -0.0999,0.06233 -0.26446,0.125841 -0.36572,0.141141 -0.10126,0.0153 -0.23564,0.119897 -0.29862,0.232435 -0.063,0.112538 -0.16941,0.170683 -0.23651,0.129212 -0.15373,-0.09501 -1.02484,0.212627 -1.02484,0.361928 0,0.06097 -0.0521,0.07867 -0.11574,0.03933 -0.0637,-0.03934 -0.28167,0.015 -0.48447,0.120771 -0.2028,0.105768 -0.44139,0.192663 -0.53021,0.193101 -0.0888,4.38e-4 -0.16149,0.05087 -0.16149,0.112072 0,0.0612 -0.13616,0.08525 -0.30259,0.05343 -0.16982,-0.03246 -0.38981,0.02938 -0.50138,0.140955 -0.10934,0.109338 -0.22458,0.173019 -0.25608,0.141513 -0.0315,-0.03151 -0.39008,0.0294 -0.79683,0.135343 -0.40675,0.105945 -0.87862,0.192627 -1.0486,0.192627 -0.16998,0 -0.34556,0.05908 -0.3902,0.131299 -0.0446,0.07221 -0.13392,0.09868 -0.19843,0.05881 -0.0645,-0.03987 -0.3657,-0.0037 -0.66932,0.08034 -0.67337,0.186405 -0.88067,0.194423 -7.79847,0.301622 -3.04892,0.04725 -5.69227,0.114449 -5.87411,0.149339 -0.25457,0.04885 -0.41171,0.240097 -0.68316,0.831482 -0.1939,0.422425 -0.34651,0.802529 -0.33915,0.844677 0.007,0.04215 -0.12123,0.193391 -0.28577,0.336097 -0.16454,0.142706 -0.29917,0.317397 -0.29917,0.388203 0,0.07081 -0.10083,0.20247 -0.22407,0.292587 -0.12325,0.09012 -0.18138,0.211022 -0.1292,0.26868 0.0522,0.05766 0.0191,0.06108 -0.0735,0.0076 -0.10608,-0.06123 -0.3093,0.05021 -0.54906,0.301089 -0.20935,0.219068 -0.38153,0.355233 -0.38262,0.302588 -10e-4,-0.05264 -0.0447,-0.03048 -0.0969,0.04926 -0.14338,0.219007 -1.94483,1.024126 -2.68249,1.198876 -0.51067,0.12098 -1.92392,0.16052 -2.04057,0.0571 z m 19.58838,-9.737382 c 0.34101,-0.06907 0.82842,-0.125585 1.08313,-0.125585 0.83216,0 3.76366,-0.895265 5.20857,-1.590667 1.65706,-0.797506 4.54104,-2.628487 4.76198,-3.023289 0.17714,-0.31654 -0.11636,-0.821794 -0.7826,-1.347195 -0.30255,-0.238594 -1.24472,-1.116905 -2.09372,-1.951803 -0.849,-0.834897 -1.59152,-1.517995 -1.65005,-1.517995 -0.0585,0 -0.10641,-0.0872 -0.10641,-0.193786 0,-0.106583 -0.0517,-0.193787 -0.11487,-0.193787 -0.0632,0 -0.4556,-0.357983 -0.87204,-0.795518 -0.41645,-0.437535 -1.61872,-1.658391 -2.67172,-2.713013 -1.053,-1.054622 -1.8795,-1.917495 -1.83666,-1.917495 0.0428,0 -0.21682,-0.261739 -0.57701,-0.581641 -0.92247,-0.819281 -1.4057,-1.328252 -1.33151,-1.40244 0.035,-0.03497 -0.0435,-0.04333 -0.17433,-0.01857 -0.13086,0.02476 -0.31403,0.04946 -0.40704,0.0549 -0.093,0.0054 -0.14215,0.05349 -0.10919,0.106778 0.033,0.05329 -0.55951,0.08846 -1.31659,0.07816 -0.98239,-0.01337 -1.52446,-0.08246 -1.89326,-0.241313 -0.28423,-0.122418 -0.54584,-0.222115 -0.58136,-0.22155 -0.0355,5.66e-4 -0.21891,-0.108853 -0.40752,-0.243153 -0.18861,-0.1343 -0.40662,-0.244181 -0.48447,-0.244181 -0.0778,0 -0.14154,-0.06783 -0.14154,-0.150723 0,-0.0829 -0.0364,-0.114296 -0.081,-0.06977 -0.14992,0.149912 -1.44534,-1.291216 -1.73223,-1.927063 -0.49966,-1.107401 -0.28953,-1.052755 -4.22488,-1.098762 -2.80123,-0.03275 -3.53297,-0.0061 -3.70299,0.135048 -0.19323,0.160365 -0.20883,0.947132 -0.17699,8.929354 0.0399,9.992375 -0.0862,9.026925 1.26223,9.665025 0.69796,0.330279 1.74198,1.272476 2.53162,2.284722 l 0.39995,0.51271 5.80122,-0.0359 c 3.19067,-0.01975 6.08022,-0.09242 6.42123,-0.161489 z m 14.94751,-8.559412 c 0.2585,-0.209935 1.53347,-1.932909 2.02845,-2.741201 0.93037,-1.519289 1.58369,-3.015305 2.08751,-4.780071 0.24802,-0.86879 0.32891,-1.20589 0.66735,-2.781167 0.10339,-0.481227 0.13298,-1.576636 0.0907,-3.358968 -0.0657,-2.772829 -0.19009,-3.598331 -0.92702,-6.153145 -0.44435,-1.540485 -2.04543,-4.742477 -2.76888,-5.537505 -0.22165,-0.243577 -0.403,-0.502553 -0.403,-0.575501 0,-0.07295 -0.0581,-0.132634 -0.1292,-0.132634 -0.0711,0 -0.11465,-0.04875 -0.0969,-0.108325 0.0178,-0.05958 -0.41825,-0.549765 -0.96893,-1.089304 -0.55068,-0.539538 -1.00123,-1.043938 -1.00123,-1.120889 0,-0.07695 -0.18536,-0.252636 -0.41191,-0.390411 l -0.41192,-0.2505 -0.58932,0.53856 c -0.32412,0.296208 -0.62883,0.627797 -0.67712,0.736865 -0.0483,0.109069 -0.0919,0.153764 -0.0969,0.09932 -0.005,-0.05444 -0.4015,0.270396 -0.88112,0.721859 -0.47963,0.451463 -1.24528,1.164569 -1.70146,1.58468 -0.45617,0.420112 -1.03753,0.994555 -1.29191,1.276541 -0.76037,0.842909 -1.54658,1.589925 -1.60834,1.528163 -0.0318,-0.03183 -0.0962,0.06278 -0.14298,0.210243 -0.0468,0.147465 -0.12478,0.268189 -0.17328,0.268276 -0.12781,2.29e-4 -0.80332,0.597731 -0.74488,0.658858 0.0271,0.02834 -0.0321,0.126497 -0.13149,0.218118 -0.0994,0.09162 -0.18075,0.134164 -0.18075,0.09454 0,-0.06952 -0.32175,0.252885 -1.30459,1.307254 -0.25567,0.274273 -0.68117,0.66423 -0.94555,0.866572 -0.26439,0.202342 -0.44813,0.400469 -0.40831,0.440282 0.0398,0.03981 0.008,0.150407 -0.0715,0.245763 -0.10584,0.127527 -0.10554,0.173376 10e-4,0.173376 0.0798,0 0.14504,0.101738 0.14507,0.226084 4e-5,0.124347 0.11631,0.531922 0.25838,0.905724 0.31469,0.827951 0.3657,3.104844 0.0845,3.77353 -0.2587,0.615288 -0.1136,1.029946 0.58785,1.679836 0.34723,0.321712 1.19549,1.164795 1.88501,1.873517 1.33995,1.377252 6.45063,6.460543 7.48062,7.440532 0.34111,0.324544 0.98937,0.978574 1.44058,1.4534 0.84774,0.892096 0.98319,0.964166 1.31127,0.697722 z M 56.767349,62.534991 c 2.53077,-0.0741 2.58496,-0.09045 2.96682,-0.895161 0.30271,-0.637913 1.08789,-1.471227 1.88232,-1.997715 1.24806,-0.827118 1.93313,-1.070958 2.90945,-1.035563 0.43485,0.01576 0.88799,-0.02582 1.00698,-0.09241 0.11899,-0.06659 1.94716,-1.807629 4.0626,-3.868972 4.46347,-4.349342 5.60726,-5.42905 6.2533,-5.902952 0.25805,-0.189297 0.50962,-0.505314 0.55906,-0.702261 0.0742,-0.295666 0.0262,-0.409039 -0.2754,-0.650394 -0.2009,-0.16077 -0.43083,-0.292597 -0.51095,-0.29295 -0.0801,-3.53e-4 -0.21331,-0.08214 -0.29598,-0.181753 -0.0827,-0.09961 -0.30779,-0.220413 -0.50028,-0.268448 -0.19249,-0.04803 -0.43718,-0.162202 -0.54376,-0.253706 -0.10659,-0.0915 -0.3682,-0.207775 -0.58136,-0.258382 -0.21317,-0.05061 -0.47478,-0.166904 -0.58136,-0.258438 -0.10659,-0.09153 -0.54261,-0.266681 -0.96894,-0.389217 -0.42633,-0.122535 -0.90869,-0.275658 -1.0719,-0.340273 -0.16322,-0.06461 -0.45681,-0.117482 -0.65242,-0.117482 -0.19561,0 -0.41088,-0.04822 -0.47839,-0.107162 -0.15873,-0.138603 -1.569,-0.397198 -2.64195,-0.484447 -2.39243,-0.194543 -11.27823,-0.318674 -11.87527,-0.165893 -0.10091,0.02582 -0.33346,0.217208 -0.51677,0.4253 -0.77303,0.87754 -1.69026,1.736039 -1.93922,1.815059 -0.14704,0.04667 -0.26734,0.139066 -0.26734,0.205333 0,0.06627 -0.11627,0.120485 -0.25838,0.120485 -0.14211,0 -0.25838,0.06157 -0.25838,0.136816 0,0.07525 -0.0478,0.107294 -0.10615,0.07121 -0.0584,-0.03608 -0.21825,0.06223 -0.35527,0.21846 -0.23887,0.272364 -0.25059,0.586761 -0.28455,7.634333 -0.0323,6.702898 -0.0165,7.371178 0.17941,7.58765 0.18917,0.20903 0.37083,0.230177 1.52111,0.17707 0.71846,-0.03317 2.3488,-0.09083 3.62297,-0.128137 z"
       id="path3"
       sodipodi:nodetypes="ccsssscsccssccssscssssssscccsccssssssssssscscscccssssccscccccsssssssscssssscssscscssssccccscsscccsscscssscscsssscssssssssssssscsscssscssssscsssssssscssssscsssscscssccssssssssssssscsccsssssscssccsscssscssscsssscssscsssssscsssssssscssscssssccssssssscsscssssssssssssssscsssss" /><path
       style="fill:#1a365d;fill-opacity:1"
       d="m 64.752468,121.4481 c -1.62258,-0.12479 -4.56541,-1.16192 -5.8782,-2.07163 -0.17764,-0.1231 -0.54099,-0.34689 -0.80744,-0.49732 -0.26646,-0.15043 -0.68795,-0.38978 -0.93664,-0.53189 -0.24869,-0.14211 -0.67018,-0.3814 -0.93663,-0.53174 -0.26646,-0.15035 -0.51354,-0.31101 -0.54907,-0.35702 -0.0355,-0.046 -0.35527,-0.22563 -0.71055,-0.39915 -0.35527,-0.17353 -0.80124,-0.42051 -0.99103,-0.54886 -0.1898,-0.12835 -0.65489,-0.39847 -1.03353,-0.60027 -0.37865,-0.2018 -1.17234,-0.66619 -1.76376,-1.03199 -0.59142,-0.3658 -1.09755,-0.66509 -1.12474,-0.66509 -0.0272,0 -0.3572,-0.18314 -0.73336,-0.40698 -0.37617,-0.22383 -1.11996,-0.63791 -1.65287,-0.92018 -0.53292,-0.28226 -1.02707,-0.55866 -1.09813,-0.61422 -0.0711,-0.0556 -0.478,-0.29151 -0.90433,-0.52434 -0.42634,-0.23282 -1.0949,-0.62986 -1.4857,-0.88232 -0.75943,-0.49058 -0.79621,-0.51217 -2.0448,-1.1999 -0.44961,-0.24765 -0.9299,-0.54653 -1.0673,-0.66418 -0.1374,-0.11765 -0.31672,-0.2139 -0.39848,-0.2139 -0.22387,0 -3.75374,-2.05297 -3.83178,-2.22855 -0.0237,-0.0533 -0.0938,-0.0969 -0.15581,-0.0969 -0.062,0 -0.42051,-0.18337 -0.79667,-0.40748 -0.37617,-0.22411 -0.97462,-0.56452 -1.3299,-0.75647 -1.45736,-0.78738 -2.23547,-1.23503 -2.95912,-1.70236 -0.41959,-0.27096 -0.81544,-0.49266 -0.87967,-0.49266 -0.0642,0 -0.075,-0.0727 -0.0239,-0.16149 0.0511,-0.0888 0.0476,-0.12067 -0.008,-0.0708 -0.0974,0.0877 -1.45727,-0.59286 -2.15696,-1.07951 -0.1886,-0.13118 -0.3976,-0.23851 -0.46443,-0.23851 -0.0668,0 -0.48131,-0.23255 -0.92106,-0.51677 -0.43974,-0.28422 -0.84117,-0.5169 -0.89206,-0.51706 -0.0813,-2.6e-4 -0.53364,-0.24853 -2.80555,-1.539665 -0.28422,-0.161524 -0.82257,-0.467073 -1.19632,-0.678999 -0.39286,-0.222754 -0.64334,-0.443932 -0.5937,-0.524244 0.0485,-0.0785 0.0258,-0.101772 -0.0523,-0.05351 -0.23734,0.146682 -2.48553,-1.867611 -2.48553,-2.226936 0,-0.102886 -0.0378,-0.149212 -0.0841,-0.102946 -0.11233,0.11233 -0.42336,-0.308162 -0.42854,-0.579352 -0.002,-0.118425 -0.0477,-0.234697 -0.101,-0.258382 -0.12872,-0.05721 -0.93663,-1.383283 -0.93663,-1.537345 0,-0.06633 -0.0581,-0.120607 -0.1292,-0.120607 -0.0711,0 -0.12919,-0.116272 -0.12919,-0.258382 0,-0.142111 -0.0515,-0.258383 -0.11452,-0.258383 -0.063,0 -0.14668,-0.159874 -0.18596,-0.355275 -0.17895,-0.890064 -0.24309,-1.147678 -0.34577,-1.388804 -0.0605,-0.14211 -0.15506,-0.549062 -0.21012,-0.904338 -0.13767,-0.888458 -0.13704,-46.335468 6.6e-4,-47.219342 0.11885,-0.762945 0.61288,-2.363793 0.95684,-3.100586 0.19301,-0.413452 0.64336,-1.043812 2.10292,-2.943471 0.28846,-0.375445 0.77378,-0.869601 1.07847,-1.098124 0.3047,-0.228523 0.86804,-0.656855 1.25186,-0.951849 0.68048,-0.522994 0.97661,-0.705348 2.44194,-1.503744 0.39081,-0.212932 0.77002,-0.433071 0.8427,-0.489199 0.0727,-0.05613 0.45056,-0.271313 0.83974,-0.478189 0.38918,-0.206875 0.94014,-0.510347 1.22436,-0.674381 0.28422,-0.164035 0.74931,-0.4201 1.03353,-0.569034 0.28422,-0.148934 0.59215,-0.342018 0.68428,-0.429076 0.0921,-0.08706 0.38281,-0.257256 0.64596,-0.378217 0.26314,-0.120961 0.63372,-0.32657 0.82352,-0.456909 0.18979,-0.130339 0.65488,-0.401814 1.03353,-0.603276 0.37864,-0.201463 0.95005,-0.513436 1.2698,-0.693274 0.31975,-0.179838 0.78484,-0.437713 1.03353,-0.573056 0.24869,-0.135343 0.68471,-0.390822 0.96893,-0.567731 0.28423,-0.17691 0.69118,-0.407446 0.90434,-0.512303 0.21317,-0.104858 0.41664,-0.222016 0.45217,-0.260352 0.0881,-0.09511 2.16786,-1.310429 2.64842,-1.547652 0.21316,-0.105227 0.41664,-0.220482 0.45217,-0.256123 0.0833,-0.08354 0.53368,-0.339694 1.41815,-0.806521 0.38918,-0.205412 0.76706,-0.421575 0.83974,-0.480364 0.0727,-0.05879 0.35015,-0.229356 0.61661,-0.379038 0.26646,-0.149682 0.70248,-0.394616 0.96893,-0.544298 0.26646,-0.149682 0.5426,-0.317895 0.61366,-0.373806 0.1561,-0.122832 0.91745,-0.555483 1.85117,-1.051962 0.37864,-0.201334 0.8527,-0.483027 1.05347,-0.625984 0.20076,-0.142956 0.42872,-0.259921 0.50657,-0.259921 0.0779,0 0.14154,-0.04442 0.14154,-0.09872 0,-0.05429 0.21801,-0.198911 0.48447,-0.321374 0.26646,-0.122463 0.77515,-0.397226 1.13042,-0.610585 0.35528,-0.213359 0.84943,-0.487197 1.09813,-0.608529 0.24869,-0.121333 0.48123,-0.252795 0.51676,-0.292138 0.0355,-0.03934 0.23901,-0.158551 0.45217,-0.264907 0.21317,-0.106356 0.41664,-0.222535 0.45217,-0.258176 0.0827,-0.08301 0.53268,-0.339159 1.399,-0.796448 0.37864,-0.199871 0.84373,-0.467927 1.03353,-0.59568 0.18979,-0.127753 0.51949,-0.317295 0.73265,-0.421204 0.21317,-0.103909 0.41664,-0.218086 0.45217,-0.253727 0.12724,-0.127647 0.84406,-0.534269 1.06583,-0.604598 0.12434,-0.03943 0.22608,-0.123054 0.22608,-0.185822 0,-0.06277 0.0586,-0.114123 0.13023,-0.114123 0.0716,0 0.78402,-0.392418 1.58311,-0.87204 1.31595,-0.78986 2.78484,-1.557884 3.5512,-1.856789 0.15987,-0.06236 0.42148,-0.164885 0.58136,-0.227841 0.15987,-0.06296 0.55229,-0.18597 0.87204,-0.273365 0.31974,-0.0874 0.75576,-0.224827 0.96893,-0.305405 0.55043,-0.208069 4.65613,-0.192934 4.867,0.01794 0.0872,0.08719 0.3221,0.158531 0.52202,0.158531 0.19992,0 0.47897,0.05814 0.62012,0.129191 0.14114,0.07106 0.37211,0.187327 0.51326,0.258382 0.14114,0.07105 0.34462,0.129191 0.45217,0.129191 0.10754,0 0.19554,0.04394 0.19554,0.09765 0,0.05371 0.18894,0.174983 0.41987,0.269496 0.78079,0.319558 1.58165,0.7286 1.76104,0.899453 0.0982,0.09348 0.40336,0.2674 0.67825,0.386493 0.27489,0.119092 0.4998,0.260953 0.4998,0.315246 0,0.05429 0.0896,0.09871 0.19919,0.09871 0.10956,0 0.32399,0.116272 0.47653,0.258382 0.15254,0.142111 0.38265,0.258383 0.51136,0.258383 0.12872,0 0.23403,0.05814 0.23403,0.129191 0,0.07106 0.0872,0.129191 0.19378,0.129191 0.10658,0 0.19379,0.05814 0.19379,0.129191 0,0.07105 0.11627,0.129191 0.25838,0.129191 0.14211,0 0.25838,0.05814 0.25838,0.129191 0,0.07106 0.0872,0.129191 0.19379,0.129191 0.10658,0 0.19379,0.04394 0.19379,0.09765 0,0.05371 0.18894,0.179858 0.41987,0.28033 0.23093,0.100472 0.44894,0.216402 0.48446,0.257622 0.10314,0.119665 0.79767,0.5158 1.32421,0.755289 0.26646,0.121193 0.48447,0.264772 0.48447,0.319065 0,0.05429 0.0896,0.09872 0.19919,0.09872 0.10955,0 0.32399,0.116272 0.47653,0.258382 0.15253,0.142112 0.35358,0.258384 0.44676,0.258384 0.0932,0 0.16943,0.05814 0.16943,0.129191 0,0.07106 0.11627,0.129191 0.25838,0.129191 0.14211,0 0.25884,0.0436 0.25939,0.09689 5.6e-4,0.05329 0.13136,0.160893 0.29068,0.239115 0.54651,0.268324 1.45241,0.762134 1.51699,0.826918 0.0355,0.03564 0.22447,0.147202 0.41987,0.247915 0.1954,0.100712 0.35528,0.231425 0.35528,0.290474 0,0.05905 0.11627,0.10736 0.25838,0.10736 0.14211,0 0.25838,0.05814 0.25838,0.129191 0,0.07105 0.11627,0.129191 0.25838,0.129191 0.14211,0 0.25838,0.05814 0.25838,0.129191 0,0.07106 0.0872,0.129191 0.19379,0.129191 0.10658,0 0.19379,0.05814 0.19379,0.129191 0,0.07106 0.0727,0.130484 0.16149,0.132064 0.0888,0.0016 0.30683,0.116559 0.48446,0.25551 0.17764,0.13895 0.42472,0.253929 0.54907,0.255509 0.12434,0.0016 0.22608,0.06101 0.22608,0.132064 0,0.07106 0.1197,0.129191 0.26601,0.129191 0.1463,0 0.23614,0.04832 0.19964,0.107376 -0.0365,0.05906 0.13448,0.18618 0.37995,0.282496 0.24547,0.09632 0.44631,0.213264 0.44631,0.259885 0,0.04662 0.27615,0.22438 0.61366,0.395017 0.33751,0.170638 0.67781,0.370583 0.75622,0.444324 0.0784,0.07374 0.39815,0.246877 0.71055,0.384748 0.31239,0.137872 0.59706,0.281348 0.63258,0.318837 0.12253,0.129291 0.58236,0.400949 0.93664,0.553344 0.1954,0.08405 0.35527,0.198214 0.35527,0.253692 0,0.05548 0.0727,0.10216 0.16149,0.10374 0.0888,0.0016 0.30683,0.116559 0.48447,0.255509 0.17764,0.138951 0.42472,0.25393 0.54906,0.25551 0.12435,0.0016 0.22609,0.06101 0.22609,0.132064 0,0.07106 0.11627,0.129191 0.25838,0.129191 0.14211,0 0.25838,0.05814 0.25838,0.129191 0,0.07105 0.0872,0.129191 0.19379,0.129191 0.10658,0 0.19378,0.06157 0.19378,0.136815 0,0.07525 0.0541,0.103369 0.12027,0.06249 0.0661,-0.04088 0.15582,-0.0168 0.19927,0.05351 0.0435,0.07031 0.28002,0.223226 0.52569,0.339806 0.24568,0.11658 0.44668,0.263476 0.44668,0.326435 0,0.06296 0.0622,0.11447 0.13822,0.11447 0.076,0 0.3917,0.174408 0.70153,0.387574 0.30982,0.213165 0.65458,0.387573 0.766123,0.387573 0.11155,0 0.20281,0.05814 0.20281,0.129191 0,0.07106 0.0872,0.129191 0.19379,0.129191 0.10658,0 0.19378,0.04422 0.19378,0.09826 0,0.05404 0.39242,0.300677 0.87204,0.548081 0.47963,0.247404 0.90111,0.479335 0.93664,0.515402 0.117929,0.119723 0.832869,0.522447 1.324209,0.74592 0.26645,0.121192 0.48446,0.264772 0.48446,0.319065 0,0.05429 0.0872,0.09871 0.19379,0.09871 0.10658,0 0.19379,0.04394 0.19379,0.09765 0,0.05371 0.18894,0.179451 0.41987,0.279425 0.23093,0.09998 0.65241,0.334913 0.93663,0.522086 0.28422,0.187174 0.80595,0.482918 1.1594,0.65721 0.35346,0.174293 0.71656,0.385172 0.80691,0.46862 0.0904,0.08345 0.4988,0.313253 0.90766,0.510677 0.40886,0.197423 0.77245,0.398555 0.80798,0.446958 0.11762,0.160251 1.03801,0.63472 1.23124,0.63472 0.10443,0 0.18986,0.04729 0.18986,0.105078 0,0.05779 0.20348,0.184916 0.45217,0.282495 0.24869,0.09758 0.45217,0.224703 0.45217,0.282496 0,0.05779 0.10174,0.105404 0.22608,0.105804 0.28467,9.14e-4 0.99369,0.604332 2.73154,2.324713 1.36923,1.355466 2.22298,2.562625 2.60499,3.683304 0.0966,0.283474 0.21123,0.573542 0.25466,0.644598 0.076,0.1244 0.20617,0.562852 0.50286,1.694472 0.0973,0.37104 0.13942,7.568084 0.13942,23.812865 0,23.226757 -6.3e-4,23.283729 -0.27193,24.402126 -0.66064,2.723353 -2.46207,5.425243 -4.73497,7.101777 -0.47921,0.353475 -4.0397,2.458862 -7.91221,4.678646 -3.872499,2.21977 -7.215322,4.13721 -7.428482,4.26096 -0.80447,0.46704 -8.31715,4.79393 -12.78992,7.3663 -7.97584,4.58703 -9.0303,5.19602 -9.49555,5.48401 -1.14687,0.70992 -3.60203,1.71423 -4.84466,1.98176 -0.91987,0.19805 -2.39674,0.25937 -3.74654,0.15556 z m 2.41247,-4.5362 c 0.37846,-0.0789 0.81892,-0.19516 0.97879,-0.25838 0.15988,-0.0632 0.42149,-0.16596 0.58136,-0.22831 0.64214,-0.25046 2.14612,-1.01204 2.924,-1.48064 1.01896,-0.61384 1.6076,-0.95016 2.27594,-1.30038 0.28422,-0.14894 0.54676,-0.31034 0.58342,-0.35868 0.0367,-0.0483 0.38548,-0.25616 0.77515,-0.46183 0.88531,-0.46727 1.33574,-0.72343 1.41904,-0.80699 0.0355,-0.0356 0.239,-0.15168 0.45217,-0.25787 0.21317,-0.10618 0.73087,-0.4113 1.15045,-0.67804 0.41958,-0.26674 0.84107,-0.48499 0.93664,-0.48499 0.0956,0 0.17375,-0.0444 0.17375,-0.0987 0,-0.0543 0.21801,-0.19788 0.48447,-0.31907 0.48745,-0.22171 1.20417,-0.6249 1.32421,-0.74494 0.0628,-0.0628 0.16609,-0.12335 1.14812,-0.67323 0.25672,-0.14375 0.62108,-0.37082 0.80969,-0.50461 0.18861,-0.13379 0.40905,-0.24326 0.48987,-0.24326 0.0808,0 0.26336,-0.10845 0.40564,-0.24101 0.14228,-0.13255 0.53227,-0.37737 0.86664,-0.54403 0.33437,-0.16666 0.84048,-0.4524 1.1247,-0.63498 0.28423,-0.18258 0.69118,-0.41529 0.90434,-0.51714 0.21317,-0.10185 0.54286,-0.28971 0.73266,-0.41746 0.18979,-0.12775 0.65488,-0.39701 1.03353,-0.59834 0.37864,-0.20134 0.92099,-0.50044 1.20521,-0.66467 0.28422,-0.16423 0.63303,-0.36365 0.77514,-0.44315 0.14211,-0.0795 0.50431,-0.30294 0.80488,-0.49652 0.30057,-0.19358 0.58228,-0.35196 0.62601,-0.35196 0.0437,0 0.23383,-0.10859 0.42244,-0.2413 0.18861,-0.13272 0.77894,-0.47277 1.31186,-0.75567 0.53291,-0.2829 1.18694,-0.6394 1.4534,-0.79223 0.26645,-0.15282 0.70247,-0.40094 0.96893,-0.55137 0.26645,-0.15043 0.6298,-0.37384 0.80744,-0.49647 0.17764,-0.12263 0.511923,-0.304427 0.742853,-0.403988 0.23093,-0.09956 0.41987,-0.224964 0.41987,-0.278674 0,-0.05371 0.0824,-0.09765 0.18302,-0.09765 0.10066,0 0.2024,-0.0436 0.22609,-0.09689 0.0237,-0.05329 0.33374,-0.239969 0.68902,-0.41484 0.35527,-0.17487 0.878499,-0.467327 1.162719,-0.649905 0.28422,-0.182577 0.69117,-0.415608 0.90434,-0.517846 0.21316,-0.102238 0.63059,-0.347538 0.92761,-0.545112 0.29702,-0.197574 0.56858,-0.359226 0.60347,-0.359226 0.0349,0 0.56675,-0.29068 1.18193,-0.645955 0.61517,-0.355275 1.13704,-0.645955 1.1597,-0.645955 0.0227,0 0.42398,-0.232544 0.89182,-0.516765 0.46783,-0.28422 0.9098,-0.516764 0.98213,-0.516764 0.0723,0 0.13153,-0.04743 0.13153,-0.105402 0,-0.05797 0.22228,-0.230331 0.49396,-0.383022 0.52285,-0.293858 2.73582,-2.508816 2.73582,-2.738278 0,-0.0743 0.11132,-0.381527 0.24738,-0.682736 0.27656,-0.612241 0.34889,-0.965238 0.52251,-2.550116 0.15858,-1.447574 0.0307,-44.669618 -0.1331,-44.975625 -0.066,-0.123348 -0.12003,-0.399068 -0.12003,-0.612711 0,-0.213643 -0.0581,-0.424372 -0.12919,-0.468286 -0.071,-0.04392 -0.12919,-0.221754 -0.12919,-0.395198 0,-0.173444 -0.0581,-0.315353 -0.12919,-0.315353 -0.0711,0 -0.12919,-0.0872 -0.12919,-0.193787 0,-0.106583 -0.0581,-0.193787 -0.12919,-0.193787 -0.0711,0 -0.1292,-0.0872 -0.1292,-0.193786 0,-0.106583 -0.0581,-0.193787 -0.12919,-0.193787 -0.071,0 -0.12919,-0.07344 -0.12919,-0.163212 0,-0.08977 -0.24708,-0.406984 -0.54906,-0.704926 -0.77621,-0.765818 -0.8406,-0.819397 -1.77638,-1.477979 -0.80191,-0.564375 -1.08656,-0.731232 -3.16518,-1.855411 -0.49738,-0.269001 -1.05962,-0.597115 -1.24942,-0.729143 -0.18979,-0.132028 -0.65488,-0.404779 -1.03353,-0.606113 -0.7371,-0.391936 -1.21496,-0.662869 -2.23874,-1.269312 -0.355269,-0.21045 -1.111039,-0.635584 -1.679479,-0.944743 -1.600693,-0.870567 -3.607073,-2.084058 -3.712273,-2.245239 -0.0522,-0.07998 -0.0958,-0.100072 -0.0969,-0.04464 -0.002,0.110222 -1.09475,-0.471068 -2.16844,-1.153675 -0.37441,-0.23804 -0.71426,-0.432801 -0.7552,-0.432801 -0.0409,0 -0.23559,-0.11475 -0.43256,-0.255001 -0.19696,-0.140251 -0.75823,-0.465975 -1.24726,-0.723831 -0.48902,-0.257856 -0.98092,-0.550058 -1.0931,-0.649336 -0.11217,-0.09928 -0.26109,-0.180507 -0.33091,-0.180507 -0.0698,0 -0.23966,-0.103399 -0.3774,-0.229775 -0.13775,-0.126376 -0.57019,-0.388242 -0.961,-0.581924 -0.74714,-0.370283 -1.44141,-0.758905 -1.55029,-0.867785 -0.0355,-0.03553 -0.29714,-0.186451 -0.58136,-0.335385 -0.28422,-0.148934 -0.74931,-0.404999 -1.03353,-0.569033 -0.28422,-0.164035 -0.82656,-0.462973 -1.20521,-0.664308 -0.37865,-0.201334 -0.85271,-0.483027 -1.05347,-0.625983 -0.20077,-0.142957 -0.40521,-0.259922 -0.45433,-0.259922 -0.0491,0 -0.24362,-0.10762 -0.43223,-0.239157 -0.1886,-0.131536 -0.80801,-0.489618 -1.37645,-0.795737 -0.56844,-0.306119 -1.06259,-0.591009 -1.09812,-0.633089 -0.0355,-0.04208 -0.23901,-0.163013 -0.45217,-0.268741 -0.21317,-0.105728 -0.67825,-0.360892 -1.03353,-0.567031 -0.35527,-0.206138 -0.90757,-0.521434 -1.22731,-0.700657 -1.17057,-0.656117 -1.68275,-1.012571 -1.58926,-1.106054 0.0526,-0.05263 0.003,-0.0602 -0.10981,-0.01683 -0.11302,0.04337 -0.28565,0.0028 -0.38363,-0.09006 -0.098,-0.09291 -0.35256,-0.254646 -0.56572,-0.359424 -0.21317,-0.104777 -0.79453,-0.432234 -1.29191,-0.727681 -3.8415,-2.28185 -5.58549,-2.579873 -8.46202,-1.446042 -1.34078,0.528492 -1.01777,0.347902 -12.66073,7.078243 -1.38557,0.800947 -7.75146,4.44915 -14.14642,8.107119 -6.39496,3.657969 -11.88881,6.842223 -12.20856,7.07612 -0.80701,0.59033 -2.08288,1.948648 -2.49641,2.657723 -0.19004,0.32587 -0.46186,1.047336 -0.60404,1.603256 -0.25367,0.991817 -0.25851,1.429962 -0.25851,23.372503 0,24.343649 -0.0302,23.303848 0.72312,24.862205 0.56931,1.177649 1.31324,2.214911 1.58854,2.214911 0.0736,0 0.1961,0.116272 0.27216,0.258382 0.0761,0.14211 0.21632,0.258382 0.3117,0.258382 0.0954,0 0.24669,0.08828 0.33623,0.196171 0.0895,0.107894 0.35828,0.288926 0.59718,0.402293 0.2389,0.113368 0.43437,0.257635 0.43437,0.320594 0,0.06296 0.0872,0.114471 0.19379,0.114471 0.10658,0 0.19378,0.05814 0.19378,0.129191 0,0.07106 0.11971,0.129191 0.26601,0.129191 0.1463,0 0.23008,0.05814 0.18616,0.129191 -0.0439,0.07105 0.0253,0.130484 0.15387,0.132064 0.12854,0.0016 0.37905,0.116559 0.55668,0.255509 0.17764,0.138951 0.39565,0.25393 0.48447,0.25551 0.0888,0.0016 0.16149,0.05231 0.16149,0.112735 0,0.06042 0.39242,0.307247 0.87204,0.548496 0.47962,0.241248 0.89142,0.48249 0.9151,0.536093 0.0237,0.0536 0.15449,0.09746 0.29068,0.09746 0.13619,0 0.24762,0.04729 0.24762,0.105078 0,0.05779 0.20347,0.184916 0.45217,0.282496 0.24869,0.09758 0.45217,0.224702 0.45217,0.282495 0,0.05779 0.0872,0.105078 0.19378,0.105078 0.10659,0 0.19379,0.05814 0.19379,0.129191 0,0.07106 0.11627,0.129191 0.25838,0.129191 0.14211,0 0.25838,0.05814 0.25838,0.129191 0,0.07106 0.11971,0.129191 0.26601,0.129191 0.1463,0 0.23008,0.05814 0.18616,0.129191 -0.0439,0.07106 0.0399,0.129191 0.18617,0.129191 0.1463,0 0.266,0.05814 0.266,0.129192 0,0.07105 0.0872,0.129191 0.19379,0.129191 0.10658,0 0.19378,0.05814 0.19378,0.129191 0,0.07106 0.11628,0.129191 0.25839,0.129191 0.14211,0 0.25838,0.05136 0.25838,0.114123 0,0.06277 0.10174,0.146388 0.22608,0.185822 0.27421,0.08696 0.92831,0.479642 1.16783,0.701092 0.0959,0.08871 0.31572,0.196753 0.48839,0.240093 0.17267,0.0433 0.31395,0.13062 0.31395,0.19398 0,0.0633 0.0872,0.11519 0.19378,0.11519 0.10659,0 0.19379,0.0581 0.19379,0.12919 0,0.071 0.0896,0.12919 0.19919,0.12919 0.10955,0 0.32399,0.11627 0.47653,0.25838 0.15254,0.14211 0.38265,0.25838 0.51136,0.25838 0.12871,0 0.23402,0.0581 0.23402,0.12919 0,0.0711 0.0436,0.11541 0.0969,0.0986 0.0533,-0.0169 0.35851,0.1448 0.67826,0.35923 0.31974,0.21442 0.75576,0.47519 0.96893,0.57949 0.21316,0.10429 0.41664,0.21897 0.45217,0.25483 0.19397,0.19581 1.46586,0.90414 1.62347,0.90414 0.10186,0 0.1852,0.0442 0.1852,0.0983 0,0.054 0.39242,0.30112 0.87204,0.54906 0.47962,0.24794 0.89142,0.49441 0.91511,0.5477 0.0237,0.0533 0.11088,0.0982 0.19378,0.0998 0.0829,0.002 0.29607,0.11656 0.4737,0.25551 0.17764,0.13895 0.42472,0.25393 0.54907,0.25551 0.12434,0.002 0.22608,0.0502 0.22608,0.10795 0,0.0578 0.20348,0.18491 0.45217,0.28249 0.24869,0.0976 0.45217,0.2247 0.45217,0.2825 0,0.0578 0.0872,0.10507 0.19378,0.10507 0.10659,0 0.19379,0.0581 0.19379,0.1292 0,0.071 0.11627,0.12919 0.25838,0.12919 0.14211,0 0.25838,0.0581 0.25838,0.12919 0,0.071 0.0872,0.12919 0.19379,0.12919 0.10658,0 0.19379,0.0442 0.19379,0.0983 0,0.054 0.39242,0.30067 0.87204,0.54808 0.47962,0.2474 0.90111,0.48713 0.93663,0.53272 0.0355,0.0456 0.26807,0.19769 0.51677,0.33799 0.24869,0.14029 0.71378,0.4112 1.03353,0.60201 0.31974,0.1908 0.68309,0.38021 0.80744,0.42091 0.12435,0.0407 0.22609,0.12534 0.22609,0.18811 0,0.0628 0.0839,0.11412 0.1864,0.11412 0.18021,0 1.10331,0.48637 1.2347,0.65054 0.0355,0.0444 0.25353,0.16292 0.48446,0.26339 0.23093,0.10047 0.41987,0.22662 0.41987,0.28033 0,0.0537 0.0622,0.0977 0.13822,0.0977 0.076,0 0.3917,0.17441 0.70153,0.38758 0.30982,0.21316 0.62794,0.38757 0.70693,0.38757 0.079,0 0.26842,0.11627 0.42095,0.25838 0.15254,0.14211 0.35359,0.25838 0.44677,0.25838 0.0932,0 0.16943,0.0581 0.16943,0.1292 0,0.071 0.11627,0.12919 0.25838,0.12919 0.14211,0 0.25838,0.0581 0.25838,0.12919 0,0.071 0.1197,0.12919 0.26601,0.12919 0.1463,0 0.23007,0.0581 0.18616,0.12919 -0.0439,0.0711 0.0399,0.12919 0.18616,0.12919 0.14631,0 0.26601,0.0581 0.26601,0.12919 0,0.0711 0.0872,0.12919 0.19378,0.12919 0.10659,0 0.19379,0.0581 0.19379,0.12919 0,0.0711 0.11627,0.1292 0.25838,0.1292 0.14211,0 0.25839,0.0581 0.25839,0.12919 0,0.071 0.0872,0.12919 0.19378,0.12919 0.10659,0 0.19379,0.0581 0.19379,0.12919 0,0.071 0.11627,0.12919 0.25838,0.12919 0.14211,0 0.25838,0.0581 0.25838,0.12919 0,0.0711 0.0872,0.12919 0.19379,0.12919 0.10658,0 0.19379,0.0437 0.19379,0.0971 0,0.0534 0.27614,0.2415 0.61365,0.41796 0.33752,0.17647 0.68904,0.39294 0.78118,0.48105 0.0921,0.0881 0.38281,0.25488 0.64595,0.37062 1.0449,0.45956 1.65155,0.73391 1.86549,0.84364 0.12339,0.0633 0.31312,0.11505 0.42163,0.11505 0.10851,0 0.29824,0.0531 0.42162,0.11798 0.23255,0.12229 1.30607,0.34989 1.79707,0.381 0.15445,0.01 0.59047,-0.0468 0.96893,-0.12566 z"
       id="path2" /></g></svg>
